<svg width="26" height="25" viewBox="0 0 26 25" fill="none" xmlns="http://www.w3.org/2000/svg">
<path d="M12.9111 0.0949707C6.10586 0.0949707 0.569336 5.63149 0.569336 12.4367V17.5499C0.569336 18.8137 1.67639 19.8418 3.03769 19.8418H4.27187C4.59919 19.8418 4.91311 19.7118 5.14456 19.4803C5.37602 19.2489 5.50605 18.935 5.50605 18.6076V12.2603C5.50605 11.9329 5.37602 11.619 5.14456 11.3876C4.91311 11.1561 4.59919 11.0261 4.27187 11.0261H3.15123C3.83744 6.24981 7.94725 2.56333 12.9111 2.56333C17.875 2.56333 21.9848 6.24981 22.671 11.0261H21.5504C21.223 11.0261 20.9091 11.1561 20.6777 11.3876C20.4462 11.619 20.3162 11.9329 20.3162 12.2603V19.8418C20.3162 21.2031 19.2091 22.3102 17.8478 22.3102H15.3795V21.076H10.4428V24.7785H17.8478C20.5704 24.7785 22.7845 22.5644 22.7845 19.8418C24.1458 19.8418 25.2529 18.8137 25.2529 17.5499V12.4367C25.2529 5.63149 19.7164 0.0949707 12.9111 0.0949707Z" fill="white"/>
</svg>
