<svg width="26" height="27" viewBox="0 0 26 27" fill="none" xmlns="http://www.w3.org/2000/svg">
<path d="M25.2047 0.697301C25.1293 0.509466 24.9844 0.357939 24.8001 0.274244C24.6158 0.190548 24.4063 0.181128 24.2152 0.247942C24.0242 0.314756 23.8662 0.452661 23.7742 0.632967C23.6823 0.813274 23.6633 1.0221 23.7214 1.216C24.9291 4.687 22.5319 7.2792 20.7041 8.6676L19.9657 7.6094C19.7174 7.2545 19.1623 6.9594 18.7307 6.9542L14.5863 6.9724C14.08 6.98769 13.5873 7.13951 13.1602 7.4118L0.948006 15.9749C0.663949 16.1748 0.470671 16.4791 0.410489 16.8212C0.350307 17.1633 0.428126 17.5153 0.626906 17.8001L6.17661 25.7405C6.59261 26.332 7.25691 26.2605 7.84971 25.8471L20.0619 17.2827C20.4129 17.0344 20.8185 16.4988 20.9615 16.0893L22.2589 12.0008C22.4019 11.5926 22.3148 10.9699 22.0665 10.615L21.6167 9.9702C24.0711 8.0891 26.6191 4.765 25.2047 0.697301ZM19.5224 12.8627C19.2974 13.0202 19.0436 13.1318 18.7755 13.1912C18.5074 13.2505 18.2302 13.2565 17.9597 13.2086C17.6893 13.1608 17.431 13.0602 17.1994 12.9125C16.9679 12.7648 16.7678 12.573 16.6104 12.3479C16.2918 11.8925 16.1669 11.3292 16.2632 10.7818C16.3595 10.2344 16.669 9.74752 17.1239 9.4281C17.4805 9.17826 17.9063 9.04609 18.3416 9.05005C18.777 9.05401 19.2003 9.19391 19.5523 9.4502C19.1987 9.6634 18.9556 9.7882 18.9101 9.8077C18.749 9.88454 18.6187 10.0138 18.5406 10.1744C18.4626 10.335 18.4414 10.5173 18.4805 10.6915C18.5196 10.8657 18.6168 11.0214 18.756 11.1331C18.8952 11.2449 19.0683 11.3061 19.2468 11.3066C19.3586 11.3066 19.473 11.2806 19.5809 11.2299C19.8331 11.1103 20.1035 10.9686 20.3856 10.8009C20.4505 11.191 20.4039 11.5915 20.2512 11.9562C20.0985 12.321 19.8459 12.6352 19.5224 12.8627Z" fill="white"/>
</svg>
