<svg width="26" height="29" viewBox="0 0 26 29" fill="none" xmlns="http://www.w3.org/2000/svg">
<path d="M15.82 25.3509L13 28.1709L10.18 25.3509C4.6375 24.0709 0.5 19.1009 0.5 13.1709C0.5 6.2709 6.1 0.670898 13 0.670898C19.9 0.670898 25.5 6.2709 25.5 13.1709C25.5 19.1009 21.3625 24.0709 15.82 25.3509ZM5.52875 17.4409C7.36375 20.1784 10.1187 21.9209 13.2 21.9209C16.28 21.9209 19.0362 20.1796 20.87 17.4409C18.7897 15.4966 16.0474 14.4169 13.2 14.4209C10.3521 14.4166 7.60939 15.4963 5.52875 17.4409ZM13 11.9209C13.9946 11.9209 14.9484 11.5258 15.6517 10.8225C16.3549 10.1193 16.75 9.16546 16.75 8.1709C16.75 7.17634 16.3549 6.22251 15.6517 5.51925C14.9484 4.81599 13.9946 4.4209 13 4.4209C12.0054 4.4209 11.0516 4.81599 10.3483 5.51925C9.64509 6.22251 9.25 7.17634 9.25 8.1709C9.25 9.16546 9.64509 10.1193 10.3483 10.8225C11.0516 11.5258 12.0054 11.9209 13 11.9209Z" fill="white"/>
</svg>
